# xmcd
#
# Track frame offsets:
# 150
# 7041
# 25408
# 43648
# 58288
# 78378
# 92301
# 111304
# 129697
# 145481
# 160741
# 180797
# 203415
#
# Disc length: 3062 seconds
#
#
# Revision: 0
# Processed by: cddbd v1.5.2PL0 Copyright (c) Steve Scherf et al.
# Submitted via: FreeRIP 2.945 
#
DISCID=a60bf40d
DTITLE=Wageble - Senegal
DYEAR=2005
DGENRE=Hip-Hop
TTITLE0=Intro
TTITLE1=Babylon
TTITLE2=Senegal
TTITLE3=Ca C'est Moi Et Pas Toi
TTITLE4=Door Waar
TTITLE5=Niatta Att
TTITLE6=Definition
TTITLE7=Ghetto
TTITLE8=Todjell Geb
TTITLE9=Do It
TTITLE10=Djigen
TTITLE11=Larmes D'Adrique
TTITLE12=Outro
EXTD=
EXTT0=
EXTT1=
EXTT2=
EXTT3=
EXTT4=
EXTT5=
EXTT6=
EXTT7=
EXTT8=
EXTT9=
EXTT10=
EXTT11=
EXTT12=
PLAYORDER=
